<mxfile host="app.diagrams.net" agent="Mozilla/5.0 (Windows NT 10.0; Win64; x64) AppleWebKit/537.36 (KHTML, like Gecko) Chrome/131.0.0.0 Safari/537.36" version="25.0.1">
  <diagram name="Page-1" id="83qT6iuMKG_TgkbHdClp">
    <mxGraphModel dx="772" dy="317" grid="1" gridSize="10" guides="1" tooltips="1" connect="1" arrows="1" fold="1" page="1" pageScale="1" pageWidth="850" pageHeight="1100" math="0" shadow="0">
      <root>
        <mxCell id="0" />
        <mxCell id="1" parent="0" />
        <mxCell id="ejz0ISAiLjoD6e1s-Wkp-10" value="" style="edgeStyle=orthogonalEdgeStyle;rounded=0;orthogonalLoop=1;jettySize=auto;html=1;entryX=0;entryY=0.5;entryDx=0;entryDy=0;" edge="1" parent="1" source="ejz0ISAiLjoD6e1s-Wkp-2" target="ejz0ISAiLjoD6e1s-Wkp-23">
          <mxGeometry relative="1" as="geometry">
            <mxPoint x="570" y="500" as="targetPoint" />
          </mxGeometry>
        </mxCell>
        <mxCell id="ejz0ISAiLjoD6e1s-Wkp-2" value="Event management system" style="ellipse;whiteSpace=wrap;html=1;aspect=fixed;" vertex="1" parent="1">
          <mxGeometry x="420" y="460" width="80" height="80" as="geometry" />
        </mxCell>
        <mxCell id="ejz0ISAiLjoD6e1s-Wkp-13" value="" style="endArrow=classic;html=1;rounded=0;entryX=0.5;entryY=0;entryDx=0;entryDy=0;exitX=0.457;exitY=1.027;exitDx=0;exitDy=0;exitPerimeter=0;" edge="1" parent="1" source="ejz0ISAiLjoD6e1s-Wkp-16" target="ejz0ISAiLjoD6e1s-Wkp-2">
          <mxGeometry width="50" height="50" relative="1" as="geometry">
            <mxPoint x="460.0000000000001" y="370.0000000000001" as="sourcePoint" />
            <mxPoint x="460" y="440.71067811865476" as="targetPoint" />
          </mxGeometry>
        </mxCell>
        <mxCell id="ejz0ISAiLjoD6e1s-Wkp-15" value="" style="endArrow=classic;html=1;rounded=0;exitX=0.617;exitY=0.029;exitDx=0;exitDy=0;exitPerimeter=0;entryX=0.556;entryY=1.004;entryDx=0;entryDy=0;entryPerimeter=0;" edge="1" parent="1" source="ejz0ISAiLjoD6e1s-Wkp-2" target="ejz0ISAiLjoD6e1s-Wkp-16">
          <mxGeometry width="50" height="50" relative="1" as="geometry">
            <mxPoint x="470" y="420" as="sourcePoint" />
            <mxPoint x="466" y="350" as="targetPoint" />
            <Array as="points" />
          </mxGeometry>
        </mxCell>
        <mxCell id="ejz0ISAiLjoD6e1s-Wkp-16" value="Clients" style="rounded=1;whiteSpace=wrap;html=1;" vertex="1" parent="1">
          <mxGeometry x="420" y="280" width="90" height="60" as="geometry" />
        </mxCell>
        <mxCell id="ejz0ISAiLjoD6e1s-Wkp-18" value="" style="endArrow=classic;html=1;rounded=0;entryX=0.973;entryY=0.613;entryDx=0;entryDy=0;entryPerimeter=0;" edge="1" parent="1" target="ejz0ISAiLjoD6e1s-Wkp-22">
          <mxGeometry width="50" height="50" relative="1" as="geometry">
            <mxPoint x="417" y="507" as="sourcePoint" />
            <mxPoint x="340" y="500" as="targetPoint" />
          </mxGeometry>
        </mxCell>
        <mxCell id="ejz0ISAiLjoD6e1s-Wkp-20" value="" style="endArrow=classic;html=1;rounded=0;exitX=1;exitY=0.5;exitDx=0;exitDy=0;entryX=0;entryY=0.5;entryDx=0;entryDy=0;" edge="1" parent="1" source="ejz0ISAiLjoD6e1s-Wkp-22" target="ejz0ISAiLjoD6e1s-Wkp-2">
          <mxGeometry width="50" height="50" relative="1" as="geometry">
            <mxPoint x="340" y="490" as="sourcePoint" />
            <mxPoint x="420" y="490" as="targetPoint" />
          </mxGeometry>
        </mxCell>
        <mxCell id="ejz0ISAiLjoD6e1s-Wkp-22" value="Vendors" style="rounded=1;whiteSpace=wrap;html=1;" vertex="1" parent="1">
          <mxGeometry x="200" y="470" width="90" height="60" as="geometry" />
        </mxCell>
        <mxCell id="ejz0ISAiLjoD6e1s-Wkp-23" value="Admins" style="rounded=1;whiteSpace=wrap;html=1;" vertex="1" parent="1">
          <mxGeometry x="650" y="470" width="90" height="60" as="geometry" />
        </mxCell>
        <mxCell id="ejz0ISAiLjoD6e1s-Wkp-28" value="" style="endArrow=classic;html=1;rounded=0;entryX=0.996;entryY=0.418;entryDx=0;entryDy=0;entryPerimeter=0;exitX=-0.023;exitY=0.401;exitDx=0;exitDy=0;exitPerimeter=0;" edge="1" parent="1" source="ejz0ISAiLjoD6e1s-Wkp-23" target="ejz0ISAiLjoD6e1s-Wkp-2">
          <mxGeometry width="50" height="50" relative="1" as="geometry">
            <mxPoint x="567" y="493" as="sourcePoint" />
            <mxPoint x="510" y="480" as="targetPoint" />
          </mxGeometry>
        </mxCell>
        <mxCell id="ejz0ISAiLjoD6e1s-Wkp-30" value="&lt;font style=&quot;font-size: 9px;&quot;&gt;Booking confirmation&lt;/font&gt;" style="text;html=1;align=center;verticalAlign=middle;whiteSpace=wrap;rounded=0;rotation=90;" vertex="1" parent="1">
          <mxGeometry x="430" y="400" width="92.64" height="15.32" as="geometry" />
        </mxCell>
        <mxCell id="ejz0ISAiLjoD6e1s-Wkp-35" value="&lt;font style=&quot;font-size: 9px;&quot;&gt;Client details&lt;/font&gt;" style="text;html=1;align=center;verticalAlign=middle;whiteSpace=wrap;rounded=0;rotation=90;" vertex="1" parent="1">
          <mxGeometry x="402.89" y="390.52" width="98.67" height="11.04" as="geometry" />
        </mxCell>
        <mxCell id="ejz0ISAiLjoD6e1s-Wkp-37" value="&lt;font style=&quot;font-size: 9px;&quot;&gt;Vendors details&lt;/font&gt;" style="text;html=1;align=center;verticalAlign=middle;whiteSpace=wrap;rounded=0;" vertex="1" parent="1">
          <mxGeometry x="300" y="490" width="100" height="10" as="geometry" />
        </mxCell>
        <mxCell id="ejz0ISAiLjoD6e1s-Wkp-38" value="&lt;font style=&quot;font-size: 9px;&quot;&gt;Vendor assignment&lt;/font&gt;" style="text;html=1;align=center;verticalAlign=middle;whiteSpace=wrap;rounded=0;" vertex="1" parent="1">
          <mxGeometry x="300" y="510" width="110" as="geometry" />
        </mxCell>
        <mxCell id="ejz0ISAiLjoD6e1s-Wkp-39" value="&lt;font style=&quot;font-size: 9px;&quot;&gt;System management tasks&lt;/font&gt;" style="text;html=1;align=center;verticalAlign=middle;whiteSpace=wrap;rounded=0;" vertex="1" parent="1">
          <mxGeometry x="510" y="480" width="130" height="10" as="geometry" />
        </mxCell>
        <mxCell id="ejz0ISAiLjoD6e1s-Wkp-40" value="&lt;font style=&quot;font-size: 9px;&quot;&gt;Vendors assignments&lt;/font&gt;" style="text;html=1;align=center;verticalAlign=middle;whiteSpace=wrap;rounded=0;" vertex="1" parent="1">
          <mxGeometry x="510" y="500" width="130" height="10" as="geometry" />
        </mxCell>
      </root>
    </mxGraphModel>
  </diagram>
</mxfile>
